<mxfile host="app.diagrams.net" modified="2021-08-26T07:18:16.349Z" agent="5.0 (Macintosh; Intel Mac OS X 10_15_7) AppleWebKit/537.36 (KHTML, like Gecko) Chrome/92.0.4515.131 Safari/537.36" etag="PZ-HBEvq7BmOO-ds0iNJ" version="14.9.8" type="github">
  <diagram id="A8W6Uas5glvj_mmTrzFD" name="第 1 页">
    <mxGraphModel dx="946" dy="614" grid="1" gridSize="10" guides="1" tooltips="1" connect="1" arrows="1" fold="1" page="1" pageScale="1" pageWidth="827" pageHeight="1169" math="0" shadow="0">
      <root>
        <mxCell id="0" />
        <mxCell id="1" parent="0" />
        <mxCell id="j1uZh3grDk_K_o6BQZcQ-10" style="edgeStyle=orthogonalEdgeStyle;rounded=0;orthogonalLoop=1;jettySize=auto;html=1;exitX=0.5;exitY=1;exitDx=0;exitDy=0;" edge="1" parent="1" source="j1uZh3grDk_K_o6BQZcQ-1">
          <mxGeometry relative="1" as="geometry">
            <mxPoint x="120" y="2364" as="targetPoint" />
          </mxGeometry>
        </mxCell>
        <mxCell id="j1uZh3grDk_K_o6BQZcQ-1" value="客户端" style="ellipse;whiteSpace=wrap;html=1;" vertex="1" parent="1">
          <mxGeometry x="50" y="340" width="140" height="70" as="geometry" />
        </mxCell>
        <mxCell id="j1uZh3grDk_K_o6BQZcQ-9" style="edgeStyle=orthogonalEdgeStyle;rounded=0;orthogonalLoop=1;jettySize=auto;html=1;exitX=0.5;exitY=1;exitDx=0;exitDy=0;" edge="1" parent="1" source="j1uZh3grDk_K_o6BQZcQ-2">
          <mxGeometry relative="1" as="geometry">
            <mxPoint x="414" y="2352" as="targetPoint" />
          </mxGeometry>
        </mxCell>
        <mxCell id="j1uZh3grDk_K_o6BQZcQ-2" value="服务器" style="ellipse;whiteSpace=wrap;html=1;" vertex="1" parent="1">
          <mxGeometry x="344" y="340" width="140" height="70" as="geometry" />
        </mxCell>
        <mxCell id="j1uZh3grDk_K_o6BQZcQ-19" style="edgeStyle=orthogonalEdgeStyle;rounded=0;orthogonalLoop=1;jettySize=auto;html=1;" edge="1" parent="1" source="j1uZh3grDk_K_o6BQZcQ-3">
          <mxGeometry relative="1" as="geometry">
            <mxPoint x="670" y="2351" as="targetPoint" />
          </mxGeometry>
        </mxCell>
        <mxCell id="j1uZh3grDk_K_o6BQZcQ-3" value="融云" style="ellipse;whiteSpace=wrap;html=1;" vertex="1" parent="1">
          <mxGeometry x="600" y="340" width="140" height="70" as="geometry" />
        </mxCell>
        <mxCell id="j1uZh3grDk_K_o6BQZcQ-20" style="edgeStyle=orthogonalEdgeStyle;rounded=0;orthogonalLoop=1;jettySize=auto;html=1;" edge="1" parent="1" source="j1uZh3grDk_K_o6BQZcQ-4">
          <mxGeometry relative="1" as="geometry">
            <mxPoint x="897" y="2342" as="targetPoint" />
          </mxGeometry>
        </mxCell>
        <mxCell id="j1uZh3grDk_K_o6BQZcQ-4" value="定时服务" style="ellipse;whiteSpace=wrap;html=1;" vertex="1" parent="1">
          <mxGeometry x="827" y="340" width="140" height="70" as="geometry" />
        </mxCell>
        <mxCell id="j1uZh3grDk_K_o6BQZcQ-21" style="edgeStyle=orthogonalEdgeStyle;rounded=0;orthogonalLoop=1;jettySize=auto;html=1;entryX=0;entryY=0.038;entryDx=0;entryDy=0;entryPerimeter=0;" edge="1" parent="1" source="j1uZh3grDk_K_o6BQZcQ-8" target="j1uZh3grDk_K_o6BQZcQ-22">
          <mxGeometry relative="1" as="geometry">
            <mxPoint x="660" y="510" as="targetPoint" />
            <Array as="points">
              <mxPoint x="547" y="510" />
              <mxPoint x="547" y="508" />
            </Array>
          </mxGeometry>
        </mxCell>
        <mxCell id="j1uZh3grDk_K_o6BQZcQ-8" value="" style="html=1;points=[];perimeter=orthogonalPerimeter;" vertex="1" parent="1">
          <mxGeometry x="416" y="470" width="10" height="80" as="geometry" />
        </mxCell>
        <mxCell id="j1uZh3grDk_K_o6BQZcQ-12" style="edgeStyle=orthogonalEdgeStyle;rounded=0;orthogonalLoop=1;jettySize=auto;html=1;" edge="1" parent="1" source="j1uZh3grDk_K_o6BQZcQ-11">
          <mxGeometry relative="1" as="geometry">
            <mxPoint x="410" y="470" as="targetPoint" />
          </mxGeometry>
        </mxCell>
        <mxCell id="j1uZh3grDk_K_o6BQZcQ-11" value="" style="html=1;points=[];perimeter=orthogonalPerimeter;" vertex="1" parent="1">
          <mxGeometry x="122" y="430" width="10" height="80" as="geometry" />
        </mxCell>
        <mxCell id="j1uZh3grDk_K_o6BQZcQ-13" value="找人互动" style="text;html=1;align=center;verticalAlign=middle;resizable=0;points=[];autosize=1;strokeColor=none;" vertex="1" parent="1">
          <mxGeometry x="210" y="440" width="60" height="20" as="geometry" />
        </mxCell>
        <mxCell id="j1uZh3grDk_K_o6BQZcQ-16" value="处理" style="text;html=1;align=center;verticalAlign=middle;resizable=0;points=[];autosize=1;strokeColor=none;" vertex="1" parent="1">
          <mxGeometry x="465" y="490" width="40" height="20" as="geometry" />
        </mxCell>
        <mxCell id="j1uZh3grDk_K_o6BQZcQ-18" value="" style="endArrow=block;dashed=1;endFill=0;endSize=12;html=1;" edge="1" parent="1">
          <mxGeometry width="160" relative="1" as="geometry">
            <mxPoint x="410" y="550" as="sourcePoint" />
            <mxPoint x="120" y="550" as="targetPoint" />
          </mxGeometry>
        </mxCell>
        <mxCell id="j1uZh3grDk_K_o6BQZcQ-28" style="edgeStyle=orthogonalEdgeStyle;rounded=0;orthogonalLoop=1;jettySize=auto;html=1;" edge="1" parent="1" source="j1uZh3grDk_K_o6BQZcQ-22">
          <mxGeometry relative="1" as="geometry">
            <mxPoint x="900" y="590" as="targetPoint" />
            <Array as="points">
              <mxPoint x="730" y="590" />
              <mxPoint x="730" y="590" />
            </Array>
          </mxGeometry>
        </mxCell>
        <mxCell id="j1uZh3grDk_K_o6BQZcQ-22" value="" style="html=1;points=[];perimeter=orthogonalPerimeter;" vertex="1" parent="1">
          <mxGeometry x="672" y="505" width="10" height="85" as="geometry" />
        </mxCell>
        <mxCell id="j1uZh3grDk_K_o6BQZcQ-24" value="" style="endArrow=block;dashed=1;endFill=0;endSize=12;html=1;" edge="1" parent="1">
          <mxGeometry width="160" relative="1" as="geometry">
            <mxPoint x="670" y="584" as="sourcePoint" />
            <mxPoint x="120" y="584" as="targetPoint" />
          </mxGeometry>
        </mxCell>
        <mxCell id="j1uZh3grDk_K_o6BQZcQ-27" value="" style="html=1;points=[];perimeter=orthogonalPerimeter;" vertex="1" parent="1">
          <mxGeometry x="899" y="585" width="10" height="55" as="geometry" />
        </mxCell>
        <mxCell id="j1uZh3grDk_K_o6BQZcQ-29" value="发送15分钟延迟消息" style="text;html=1;align=center;verticalAlign=middle;resizable=0;points=[];autosize=1;strokeColor=none;" vertex="1" parent="1">
          <mxGeometry x="700" y="570" width="120" height="20" as="geometry" />
        </mxCell>
        <mxCell id="j1uZh3grDk_K_o6BQZcQ-30" value="" style="endArrow=block;dashed=1;endFill=0;endSize=12;html=1;exitX=0.1;exitY=0.982;exitDx=0;exitDy=0;exitPerimeter=0;" edge="1" parent="1" source="j1uZh3grDk_K_o6BQZcQ-27">
          <mxGeometry width="160" relative="1" as="geometry">
            <mxPoint x="460" y="630" as="sourcePoint" />
            <mxPoint x="420" y="639" as="targetPoint" />
          </mxGeometry>
        </mxCell>
        <mxCell id="j1uZh3grDk_K_o6BQZcQ-33" style="edgeStyle=orthogonalEdgeStyle;rounded=0;orthogonalLoop=1;jettySize=auto;html=1;entryX=-0.1;entryY=0;entryDx=0;entryDy=0;entryPerimeter=0;" edge="1" parent="1" source="j1uZh3grDk_K_o6BQZcQ-31" target="j1uZh3grDk_K_o6BQZcQ-32">
          <mxGeometry relative="1" as="geometry">
            <Array as="points">
              <mxPoint x="550" y="720" />
              <mxPoint x="550" y="720" />
            </Array>
          </mxGeometry>
        </mxCell>
        <mxCell id="j1uZh3grDk_K_o6BQZcQ-31" value="" style="html=1;points=[];perimeter=orthogonalPerimeter;" vertex="1" parent="1">
          <mxGeometry x="416" y="640" width="10" height="80" as="geometry" />
        </mxCell>
        <mxCell id="j1uZh3grDk_K_o6BQZcQ-32" value="" style="html=1;points=[];perimeter=orthogonalPerimeter;" vertex="1" parent="1">
          <mxGeometry x="672" y="720" width="10" height="80" as="geometry" />
        </mxCell>
        <mxCell id="j1uZh3grDk_K_o6BQZcQ-35" value="判断是否失效" style="text;html=1;align=center;verticalAlign=middle;resizable=0;points=[];autosize=1;strokeColor=none;" vertex="1" parent="1">
          <mxGeometry x="453" y="670" width="90" height="20" as="geometry" />
        </mxCell>
        <mxCell id="j1uZh3grDk_K_o6BQZcQ-37" value="" style="endArrow=block;dashed=1;endFill=0;endSize=12;html=1;" edge="1" parent="1">
          <mxGeometry width="160" relative="1" as="geometry">
            <mxPoint x="670" y="800" as="sourcePoint" />
            <mxPoint x="120" y="799" as="targetPoint" />
          </mxGeometry>
        </mxCell>
        <mxCell id="j1uZh3grDk_K_o6BQZcQ-41" value="30135信令" style="edgeLabel;html=1;align=center;verticalAlign=middle;resizable=0;points=[];" vertex="1" connectable="0" parent="j1uZh3grDk_K_o6BQZcQ-37">
          <mxGeometry x="0.1466" relative="1" as="geometry">
            <mxPoint x="165" y="-29" as="offset" />
          </mxGeometry>
        </mxCell>
        <mxCell id="j1uZh3grDk_K_o6BQZcQ-40" value="30131信令&lt;br&gt;" style="text;html=1;strokeColor=none;fillColor=none;align=center;verticalAlign=middle;whiteSpace=wrap;rounded=0;" vertex="1" parent="1">
          <mxGeometry x="455" y="540" width="110" height="60" as="geometry" />
        </mxCell>
        <mxCell id="j1uZh3grDk_K_o6BQZcQ-42" value="k:30131&lt;br&gt;&lt;div style=&quot;text-align: left&quot;&gt;更新排队队列&lt;/div&gt;" style="text;html=1;strokeColor=none;fillColor=none;align=center;verticalAlign=middle;whiteSpace=wrap;rounded=0;" vertex="1" parent="1">
          <mxGeometry x="690" y="485" width="90" height="75" as="geometry" />
        </mxCell>
        <mxCell id="j1uZh3grDk_K_o6BQZcQ-43" value="k:30135" style="text;html=1;strokeColor=none;fillColor=none;align=center;verticalAlign=middle;whiteSpace=wrap;rounded=0;" vertex="1" parent="1">
          <mxGeometry x="690" y="720" width="90" height="75" as="geometry" />
        </mxCell>
        <mxCell id="j1uZh3grDk_K_o6BQZcQ-48" style="edgeStyle=orthogonalEdgeStyle;rounded=0;orthogonalLoop=1;jettySize=auto;html=1;" edge="1" parent="1" source="j1uZh3grDk_K_o6BQZcQ-44">
          <mxGeometry relative="1" as="geometry">
            <mxPoint x="420" y="1050" as="targetPoint" />
            <Array as="points">
              <mxPoint x="410" y="1050" />
            </Array>
          </mxGeometry>
        </mxCell>
        <mxCell id="j1uZh3grDk_K_o6BQZcQ-44" value="" style="html=1;points=[];perimeter=orthogonalPerimeter;" vertex="1" parent="1">
          <mxGeometry x="122" y="970" width="10" height="80" as="geometry" />
        </mxCell>
        <mxCell id="j1uZh3grDk_K_o6BQZcQ-47" value="主持人发起互动" style="text;html=1;align=center;verticalAlign=middle;resizable=0;points=[];autosize=1;strokeColor=none;" vertex="1" parent="1">
          <mxGeometry x="140" y="1000" width="100" height="20" as="geometry" />
        </mxCell>
        <mxCell id="j1uZh3grDk_K_o6BQZcQ-52" style="edgeStyle=orthogonalEdgeStyle;rounded=0;orthogonalLoop=1;jettySize=auto;html=1;" edge="1" parent="1" source="j1uZh3grDk_K_o6BQZcQ-50">
          <mxGeometry relative="1" as="geometry">
            <mxPoint x="670" y="1130" as="targetPoint" />
            <Array as="points">
              <mxPoint x="670" y="1130" />
            </Array>
          </mxGeometry>
        </mxCell>
        <mxCell id="j1uZh3grDk_K_o6BQZcQ-50" value="" style="html=1;points=[];perimeter=orthogonalPerimeter;" vertex="1" parent="1">
          <mxGeometry x="417" y="1050" width="10" height="80" as="geometry" />
        </mxCell>
        <mxCell id="j1uZh3grDk_K_o6BQZcQ-51" value="30134信令" style="text;html=1;align=center;verticalAlign=middle;resizable=0;points=[];autosize=1;strokeColor=none;" vertex="1" parent="1">
          <mxGeometry x="473" y="1180" width="70" height="20" as="geometry" />
        </mxCell>
        <mxCell id="j1uZh3grDk_K_o6BQZcQ-55" style="edgeStyle=orthogonalEdgeStyle;rounded=0;orthogonalLoop=1;jettySize=auto;html=1;" edge="1" parent="1" source="j1uZh3grDk_K_o6BQZcQ-53">
          <mxGeometry relative="1" as="geometry">
            <mxPoint x="900" y="1210" as="targetPoint" />
            <Array as="points">
              <mxPoint x="890" y="1210" />
            </Array>
          </mxGeometry>
        </mxCell>
        <mxCell id="j1uZh3grDk_K_o6BQZcQ-53" value="" style="html=1;points=[];perimeter=orthogonalPerimeter;" vertex="1" parent="1">
          <mxGeometry x="673" y="1130" width="10" height="80" as="geometry" />
        </mxCell>
        <mxCell id="j1uZh3grDk_K_o6BQZcQ-54" value="" style="endArrow=block;dashed=1;endFill=0;endSize=12;html=1;" edge="1" parent="1">
          <mxGeometry width="160" relative="1" as="geometry">
            <mxPoint x="670" y="1210" as="sourcePoint" />
            <mxPoint x="120" y="1210" as="targetPoint" />
          </mxGeometry>
        </mxCell>
        <mxCell id="j1uZh3grDk_K_o6BQZcQ-56" value="发送10秒延迟消息" style="text;html=1;align=center;verticalAlign=middle;resizable=0;points=[];autosize=1;strokeColor=none;" vertex="1" parent="1">
          <mxGeometry x="690" y="1160" width="110" height="20" as="geometry" />
        </mxCell>
        <mxCell id="j1uZh3grDk_K_o6BQZcQ-57" value="" style="html=1;points=[];perimeter=orthogonalPerimeter;" vertex="1" parent="1">
          <mxGeometry x="899" y="1210" width="10" height="80" as="geometry" />
        </mxCell>
        <mxCell id="j1uZh3grDk_K_o6BQZcQ-59" value="" style="endArrow=block;dashed=1;endFill=0;endSize=12;html=1;exitX=0.1;exitY=0.975;exitDx=0;exitDy=0;exitPerimeter=0;" edge="1" parent="1" source="j1uZh3grDk_K_o6BQZcQ-57">
          <mxGeometry width="160" relative="1" as="geometry">
            <mxPoint x="700" y="1280" as="sourcePoint" />
            <mxPoint x="120" y="1288" as="targetPoint" />
          </mxGeometry>
        </mxCell>
        <mxCell id="j1uZh3grDk_K_o6BQZcQ-61" value="发送邀请信令&lt;br&gt;k:30134" style="text;html=1;strokeColor=none;fillColor=none;align=left;verticalAlign=middle;whiteSpace=wrap;rounded=0;" vertex="1" parent="1">
          <mxGeometry x="440" y="1050" width="190" height="70" as="geometry" />
        </mxCell>
        <mxCell id="j1uZh3grDk_K_o6BQZcQ-64" value="30132" style="text;html=1;align=center;verticalAlign=middle;resizable=0;points=[];autosize=1;strokeColor=none;" vertex="1" parent="1">
          <mxGeometry x="485" y="1260" width="50" height="20" as="geometry" />
        </mxCell>
        <mxCell id="j1uZh3grDk_K_o6BQZcQ-68" style="edgeStyle=orthogonalEdgeStyle;rounded=0;orthogonalLoop=1;jettySize=auto;html=1;" edge="1" parent="1" source="j1uZh3grDk_K_o6BQZcQ-65">
          <mxGeometry relative="1" as="geometry">
            <mxPoint x="420" y="1410" as="targetPoint" />
            <Array as="points">
              <mxPoint x="200" y="1410" />
              <mxPoint x="200" y="1410" />
            </Array>
          </mxGeometry>
        </mxCell>
        <mxCell id="j1uZh3grDk_K_o6BQZcQ-65" value="" style="html=1;points=[];perimeter=orthogonalPerimeter;" vertex="1" parent="1">
          <mxGeometry x="122" y="1340" width="10" height="80" as="geometry" />
        </mxCell>
        <mxCell id="j1uZh3grDk_K_o6BQZcQ-66" value="选择题目或则拒绝" style="text;html=1;align=center;verticalAlign=middle;resizable=0;points=[];autosize=1;strokeColor=none;" vertex="1" parent="1">
          <mxGeometry x="160" y="1350" width="110" height="20" as="geometry" />
        </mxCell>
        <mxCell id="j1uZh3grDk_K_o6BQZcQ-72" style="edgeStyle=orthogonalEdgeStyle;rounded=0;orthogonalLoop=1;jettySize=auto;html=1;" edge="1" parent="1" source="j1uZh3grDk_K_o6BQZcQ-67">
          <mxGeometry relative="1" as="geometry">
            <mxPoint x="670" y="1480" as="targetPoint" />
            <Array as="points">
              <mxPoint x="490" y="1480" />
              <mxPoint x="490" y="1480" />
            </Array>
          </mxGeometry>
        </mxCell>
        <mxCell id="j1uZh3grDk_K_o6BQZcQ-67" value="" style="html=1;points=[];perimeter=orthogonalPerimeter;" vertex="1" parent="1">
          <mxGeometry x="417" y="1400" width="13" height="80" as="geometry" />
        </mxCell>
        <mxCell id="j1uZh3grDk_K_o6BQZcQ-80" style="edgeStyle=orthogonalEdgeStyle;rounded=0;orthogonalLoop=1;jettySize=auto;html=1;" edge="1" parent="1" source="j1uZh3grDk_K_o6BQZcQ-69">
          <mxGeometry relative="1" as="geometry">
            <mxPoint x="900" y="1540" as="targetPoint" />
            <Array as="points">
              <mxPoint x="740" y="1540" />
              <mxPoint x="740" y="1540" />
            </Array>
          </mxGeometry>
        </mxCell>
        <mxCell id="j1uZh3grDk_K_o6BQZcQ-69" value="" style="html=1;points=[];perimeter=orthogonalPerimeter;" vertex="1" parent="1">
          <mxGeometry x="673" y="1460" width="10" height="80" as="geometry" />
        </mxCell>
        <mxCell id="j1uZh3grDk_K_o6BQZcQ-73" value="30132" style="text;html=1;align=center;verticalAlign=middle;resizable=0;points=[];autosize=1;strokeColor=none;" vertex="1" parent="1">
          <mxGeometry x="445" y="1410" width="50" height="20" as="geometry" />
        </mxCell>
        <mxCell id="j1uZh3grDk_K_o6BQZcQ-74" value="30133 更新题目" style="text;html=1;align=center;verticalAlign=middle;resizable=0;points=[];autosize=1;strokeColor=none;" vertex="1" parent="1">
          <mxGeometry x="445" y="1450" width="100" height="20" as="geometry" />
        </mxCell>
        <mxCell id="j1uZh3grDk_K_o6BQZcQ-75" value="" style="endArrow=block;dashed=1;endFill=0;endSize=12;html=1;" edge="1" parent="1">
          <mxGeometry width="160" relative="1" as="geometry">
            <mxPoint x="670" y="1540" as="sourcePoint" />
            <mxPoint x="120" y="1540" as="targetPoint" />
          </mxGeometry>
        </mxCell>
        <mxCell id="j1uZh3grDk_K_o6BQZcQ-76" value="" style="endArrow=block;dashed=1;endFill=0;endSize=12;html=1;" edge="1" parent="1">
          <mxGeometry width="160" relative="1" as="geometry">
            <mxPoint x="670" y="1510" as="sourcePoint" />
            <mxPoint x="120" y="1510" as="targetPoint" />
          </mxGeometry>
        </mxCell>
        <mxCell id="j1uZh3grDk_K_o6BQZcQ-77" value="30132" style="text;html=1;align=center;verticalAlign=middle;resizable=0;points=[];autosize=1;strokeColor=none;" vertex="1" parent="1">
          <mxGeometry x="245" y="1490" width="50" height="20" as="geometry" />
        </mxCell>
        <mxCell id="j1uZh3grDk_K_o6BQZcQ-78" value="30133" style="text;html=1;align=center;verticalAlign=middle;resizable=0;points=[];autosize=1;strokeColor=none;" vertex="1" parent="1">
          <mxGeometry x="240" y="1520" width="50" height="20" as="geometry" />
        </mxCell>
        <mxCell id="j1uZh3grDk_K_o6BQZcQ-79" value="" style="html=1;points=[];perimeter=orthogonalPerimeter;" vertex="1" parent="1">
          <mxGeometry x="900" y="1520" width="10" height="80" as="geometry" />
        </mxCell>
        <mxCell id="j1uZh3grDk_K_o6BQZcQ-81" value="同意则发送10分钟延迟任务" style="text;html=1;align=center;verticalAlign=middle;resizable=0;points=[];autosize=1;strokeColor=none;" vertex="1" parent="1">
          <mxGeometry x="710" y="1510" width="160" height="20" as="geometry" />
        </mxCell>
        <mxCell id="j1uZh3grDk_K_o6BQZcQ-82" value="" style="endArrow=block;dashed=1;endFill=0;endSize=12;html=1;" edge="1" parent="1">
          <mxGeometry width="160" relative="1" as="geometry">
            <mxPoint x="890" y="1600" as="sourcePoint" />
            <mxPoint x="420" y="1600" as="targetPoint" />
          </mxGeometry>
        </mxCell>
        <mxCell id="j1uZh3grDk_K_o6BQZcQ-86" style="edgeStyle=orthogonalEdgeStyle;rounded=0;orthogonalLoop=1;jettySize=auto;html=1;entryX=0.7;entryY=0.125;entryDx=0;entryDy=0;entryPerimeter=0;" edge="1" parent="1" source="j1uZh3grDk_K_o6BQZcQ-83" target="j1uZh3grDk_K_o6BQZcQ-85">
          <mxGeometry relative="1" as="geometry">
            <Array as="points">
              <mxPoint x="425" y="1690" />
            </Array>
          </mxGeometry>
        </mxCell>
        <mxCell id="j1uZh3grDk_K_o6BQZcQ-83" value="" style="html=1;points=[];perimeter=orthogonalPerimeter;" vertex="1" parent="1">
          <mxGeometry x="420" y="1608" width="10" height="80" as="geometry" />
        </mxCell>
        <mxCell id="j1uZh3grDk_K_o6BQZcQ-84" value="处理" style="text;html=1;align=center;verticalAlign=middle;resizable=0;points=[];autosize=1;strokeColor=none;" vertex="1" parent="1">
          <mxGeometry x="440" y="1630" width="40" height="20" as="geometry" />
        </mxCell>
        <mxCell id="j1uZh3grDk_K_o6BQZcQ-85" value="" style="html=1;points=[];perimeter=orthogonalPerimeter;" vertex="1" parent="1">
          <mxGeometry x="673" y="1680" width="10" height="80" as="geometry" />
        </mxCell>
        <mxCell id="j1uZh3grDk_K_o6BQZcQ-88" value="" style="endArrow=block;dashed=1;endFill=0;endSize=12;html=1;" edge="1" parent="1">
          <mxGeometry width="160" relative="1" as="geometry">
            <mxPoint x="670" y="1750" as="sourcePoint" />
            <mxPoint x="120" y="1750" as="targetPoint" />
          </mxGeometry>
        </mxCell>
        <mxCell id="j1uZh3grDk_K_o6BQZcQ-89" value="30136 未在规定时间内完成" style="text;html=1;align=center;verticalAlign=middle;resizable=0;points=[];autosize=1;strokeColor=none;" vertex="1" parent="1">
          <mxGeometry x="165" y="1720" width="160" height="20" as="geometry" />
        </mxCell>
        <mxCell id="j1uZh3grDk_K_o6BQZcQ-93" style="edgeStyle=orthogonalEdgeStyle;rounded=0;orthogonalLoop=1;jettySize=auto;html=1;" edge="1" parent="1" source="j1uZh3grDk_K_o6BQZcQ-90">
          <mxGeometry relative="1" as="geometry">
            <mxPoint x="410" y="1880" as="targetPoint" />
            <Array as="points">
              <mxPoint x="200" y="1880" />
              <mxPoint x="200" y="1880" />
            </Array>
          </mxGeometry>
        </mxCell>
        <mxCell id="j1uZh3grDk_K_o6BQZcQ-90" value="" style="html=1;points=[];perimeter=orthogonalPerimeter;" vertex="1" parent="1">
          <mxGeometry x="122" y="1800" width="10" height="80" as="geometry" />
        </mxCell>
        <mxCell id="j1uZh3grDk_K_o6BQZcQ-91" value="主持人点完成或结束" style="text;html=1;align=center;verticalAlign=middle;resizable=0;points=[];autosize=1;strokeColor=none;" vertex="1" parent="1">
          <mxGeometry x="160" y="1820" width="120" height="20" as="geometry" />
        </mxCell>
        <mxCell id="j1uZh3grDk_K_o6BQZcQ-95" style="edgeStyle=orthogonalEdgeStyle;rounded=0;orthogonalLoop=1;jettySize=auto;html=1;entryX=0;entryY=0.075;entryDx=0;entryDy=0;entryPerimeter=0;" edge="1" parent="1" source="j1uZh3grDk_K_o6BQZcQ-92" target="j1uZh3grDk_K_o6BQZcQ-94">
          <mxGeometry relative="1" as="geometry">
            <Array as="points">
              <mxPoint x="425" y="1956" />
            </Array>
          </mxGeometry>
        </mxCell>
        <mxCell id="j1uZh3grDk_K_o6BQZcQ-92" value="" style="html=1;points=[];perimeter=orthogonalPerimeter;" vertex="1" parent="1">
          <mxGeometry x="420" y="1870" width="10" height="80" as="geometry" />
        </mxCell>
        <mxCell id="j1uZh3grDk_K_o6BQZcQ-94" value="" style="html=1;points=[];perimeter=orthogonalPerimeter;" vertex="1" parent="1">
          <mxGeometry x="673" y="1950" width="10" height="80" as="geometry" />
        </mxCell>
        <mxCell id="j1uZh3grDk_K_o6BQZcQ-96" value="" style="endArrow=block;dashed=1;endFill=0;endSize=12;html=1;" edge="1" parent="1">
          <mxGeometry width="160" relative="1" as="geometry">
            <mxPoint x="670" y="1990" as="sourcePoint" />
            <mxPoint x="120" y="1990" as="targetPoint" />
          </mxGeometry>
        </mxCell>
        <mxCell id="j1uZh3grDk_K_o6BQZcQ-97" value="30137完成" style="text;html=1;align=center;verticalAlign=middle;resizable=0;points=[];autosize=1;strokeColor=none;" vertex="1" parent="1">
          <mxGeometry x="195" y="1960" width="70" height="20" as="geometry" />
        </mxCell>
        <mxCell id="j1uZh3grDk_K_o6BQZcQ-99" value="" style="endArrow=block;dashed=1;endFill=0;endSize=12;html=1;" edge="1" parent="1" source="j1uZh3grDk_K_o6BQZcQ-94">
          <mxGeometry width="160" relative="1" as="geometry">
            <mxPoint x="380" y="2060" as="sourcePoint" />
            <mxPoint x="120" y="2030" as="targetPoint" />
          </mxGeometry>
        </mxCell>
        <mxCell id="j1uZh3grDk_K_o6BQZcQ-100" value="30138提前结束" style="text;html=1;align=center;verticalAlign=middle;resizable=0;points=[];autosize=1;strokeColor=none;" vertex="1" parent="1">
          <mxGeometry x="190" y="2000" width="100" height="20" as="geometry" />
        </mxCell>
      </root>
    </mxGraphModel>
  </diagram>
</mxfile>
